<?xml version="1.0" encoding="UTF-8"?>
<svg id="Layer_2" data-name="Layer 2" xmlns="http://www.w3.org/2000/svg" viewBox="0 0 93.5 93.5">
  <defs>
    <style>
      .cls-1 {
        fill: #1e2207;
      }
    </style>
  </defs>
  <g id="Site_Icons" data-name="Site Icons">
    <g>
      <path class="cls-1" d="M46.75,23.42c-12.87,0-23.33,10.47-23.33,23.33s10.47,23.33,23.33,23.33,23.33-10.47,23.33-23.33-10.47-23.33-23.33-23.33Z"/>
      <path class="cls-1" d="M46.75,17.98c3.17,0,5.75-2.58,5.75-5.75v-6.47c0-3.17-2.58-5.75-5.75-5.75s-5.75,2.58-5.75,5.75v6.47c0,3.17,2.58,5.75,5.75,5.75Z"/>
      <path class="cls-1" d="M46.75,75.52c-3.17,0-5.75,2.58-5.75,5.75v6.47c0,3.17,2.58,5.75,5.75,5.75s5.75-2.58,5.75-5.75v-6.47c0-3.17-2.58-5.75-5.75-5.75Z"/>
      <path class="cls-1" d="M87.75,41h-6.47c-3.17,0-5.75,2.58-5.75,5.75s2.58,5.75,5.75,5.75h6.47c3.17,0,5.75-2.58,5.75-5.75s-2.58-5.75-5.75-5.75Z"/>
      <path class="cls-1" d="M17.98,46.75c0-3.17-2.58-5.75-5.75-5.75h-6.47c-3.17,0-5.75,2.58-5.75,5.75s2.58,5.75,5.75,5.75h6.47c3.17,0,5.75-2.58,5.75-5.75Z"/>
      <path class="cls-1" d="M67.1,26.4c1.12,1.12,2.59,1.68,4.07,1.68s2.95-.56,4.07-1.68l4.58-4.58c1.09-1.09,1.69-2.53,1.69-4.07s-.6-2.98-1.69-4.07c-1.09-1.09-2.53-1.69-4.07-1.69s-2.98.6-4.07,1.69l-4.58,4.58c-2.24,2.24-2.24,5.89,0,8.13h0Z"/>
      <path class="cls-1" d="M18.27,67.1l-4.58,4.58c-1.09,1.09-1.69,2.53-1.69,4.07s.6,2.98,1.69,4.07c1.09,1.09,2.53,1.69,4.07,1.69s2.98-.6,4.07-1.69l4.58-4.58c2.24-2.24,2.24-5.89,0-8.13-2.24-2.24-5.89-2.24-8.13,0Z"/>
      <path class="cls-1" d="M75.23,67.1c-2.24-2.24-5.89-2.24-8.13,0h0c-2.24,2.24-2.24,5.89,0,8.13l4.58,4.58c1.09,1.09,2.53,1.69,4.07,1.69s2.98-.6,4.07-1.68c1.09-1.09,1.69-2.53,1.69-4.07s-.6-2.98-1.69-4.07l-4.58-4.58Z"/>
      <path class="cls-1" d="M18.27,26.4c1.12,1.12,2.59,1.68,4.07,1.68s2.95-.56,4.07-1.68,1.68-2.53,1.68-4.07-.6-2.98-1.68-4.07l-4.58-4.58c-1.09-1.09-2.53-1.69-4.07-1.69s-2.98.6-4.07,1.69c-1.09,1.09-1.69,2.53-1.69,4.07s.6,2.98,1.69,4.07l4.58,4.58Z"/>
    </g>
  </g>
</svg>