<?xml version="1.0" encoding="UTF-8"?>
<svg id="Layer_2" data-name="Layer 2" xmlns="http://www.w3.org/2000/svg" viewBox="0 0 497.02 89.38">
  <defs>
    <style>
      .cls-1 {
        fill: #425e2e;
      }
    </style>
  </defs>
  <g id="Horizontal_Logo" data-name="Horizontal Logo">
    <g id="Grn">
      <g>
        <g>
          <path class="cls-1" d="M61.4,63.39c-.05-1.12-.1-2.3-.15-3.53-.05-1.23-.1-2.17-.15-2.84h-30.2v11.5h14.8c-.16.54-.39,1.05-.69,1.53-.66,1.07-1.57,1.99-2.72,2.76s-2.53,1.37-4.14,1.8c-1.61.43-3.36.65-5.25.65-2.15,0-4.17-.27-6.06-.8-1.89-.54-3.55-1.37-4.98-2.49-1.43-1.12-2.56-2.55-3.37-4.29-.82-1.74-1.23-3.83-1.23-6.29,0-1.99.38-3.84,1.15-5.56.77-1.71,1.84-3.18,3.22-4.41,1.38-1.23,3.01-2.18,4.91-2.87,1.89-.69,3.93-1.03,6.13-1.03s4.36.24,6.17.73c1.81.49,3.45,1.12,4.91,1.92,1.46.79,2.77,1.65,3.95,2.57l9.81-10.66c-1.64-1.53-3.65-2.95-6.06-4.25-2.4-1.3-5.16-2.36-8.28-3.18-3.12-.82-6.54-1.23-10.27-1.23-4.91,0-9.38.69-13.42,2.07-4.04,1.38-7.5,3.32-10.39,5.83-2.89,2.5-5.12,5.46-6.71,8.85-1.58,3.4-2.38,7.14-2.38,11.23,0,4.45.72,8.41,2.15,11.88,1.43,3.48,3.49,6.4,6.17,8.78s5.94,4.19,9.77,5.44c3.83,1.25,8.1,1.88,12.8,1.88s8.76-.55,12.5-1.65c3.73-1.1,6.95-2.67,9.66-4.71,2.71-2.04,4.79-4.53,6.25-7.47,1.46-2.94,2.18-6.27,2.18-10,0-.31-.03-1.02-.08-2.15Z"/>
          <path class="cls-1" d="M122.12,88.61l-13.36-19.64c.24-.11.48-.21.71-.33,3.07-1.56,5.48-3.74,7.24-6.55,1.76-2.81,2.64-6.06,2.64-9.74s-.82-6.67-2.45-9.28c-1.64-2.61-4.02-4.61-7.17-6.02-3.14-1.41-6.96-2.11-11.46-2.11h-28.36v53.66h15.49v-17.63h6.26l11.83,17.63h18.63ZM85.4,47.98h10.96c1.33,0,2.49.2,3.49.61,1,.41,1.78,1.02,2.34,1.84.56.82.84,1.87.84,3.14s-.28,2.35-.84,3.22c-.56.87-1.3,1.53-2.22,1.99s-2.02.69-3.3.69h-11.27v-11.5Z"/>
          <path class="cls-1" d="M154.7,89.07c-5.32,0-10-1.02-14.07-3.07-4.06-2.04-7.22-4.88-9.47-8.51-2.25-3.63-3.37-7.74-3.37-12.34v-30.2h16.71v29.74c0,2.04.43,3.83,1.3,5.37.87,1.53,2.07,2.72,3.6,3.56s3.3,1.26,5.29,1.26,3.87-.42,5.48-1.26c1.61-.84,2.86-2.03,3.76-3.56.89-1.53,1.34-3.32,1.34-5.37v-29.74h16.33v30.2c0,4.6-1.12,8.71-3.37,12.34-2.25,3.63-5.39,6.47-9.43,8.51-4.04,2.04-8.74,3.07-14.11,3.07ZM144.28,30.35c-2.21,0-3.91-.6-5.11-1.79-1.2-1.2-1.79-2.9-1.79-5.11,0-2.02.62-3.68,1.86-4.97,1.24-1.29,2.92-1.93,5.04-1.93s3.91.59,5.11,1.76c1.2,1.17,1.79,2.89,1.79,5.14,0,2.02-.62,3.68-1.86,4.97-1.24,1.29-2.92,1.93-5.04,1.93ZM165.05,30.35c-2.21,0-3.91-.6-5.11-1.79-1.2-1.2-1.79-2.9-1.79-5.11,0-2.02.62-3.68,1.86-4.97,1.24-1.29,2.92-1.93,5.04-1.93s3.91.59,5.11,1.76c1.2,1.17,1.79,2.89,1.79,5.14,0,2.02-.62,3.68-1.86,4.97-1.24,1.29-2.92,1.93-5.04,1.93Z"/>
          <path class="cls-1" d="M232.52,34.95v14.64c0,1.38.04,2.71.11,3.99.08,1.28.18,2.62.31,4.02.13,1.41.27,2.94.42,4.6.09.93.2,1.95.33,3.05l-27.24-30.3h-15.26v53.66h15.95v-14.64c0-2.4-.01-4.5-.04-6.29-.03-1.79-.09-3.35-.19-4.68-.1-1.33-.2-2.54-.31-3.64-.02-.27-.06-.52-.09-.78l26.54,30.03h15.41v-53.66h-15.95Z"/>
        </g>
        <g>
          <polygon class="cls-1" points="296.5 34.95 296.5 54.81 275.11 54.81 275.11 34.95 258.55 34.95 258.55 88.61 275.11 88.61 275.11 69.22 296.5 69.22 296.5 88.61 313.06 88.61 313.06 34.95 296.5 34.95"/>
          <path class="cls-1" d="M412.92,89.07c-5.32,0-10-1.02-14.07-3.07-4.06-2.04-7.22-4.88-9.47-8.51-2.25-3.63-3.37-7.74-3.37-12.34v-30.2h16.71v29.74c0,2.04.43,3.83,1.3,5.37.87,1.53,2.07,2.72,3.6,3.56s3.3,1.26,5.29,1.26,3.87-.42,5.48-1.26c1.61-.84,2.86-2.03,3.76-3.56.89-1.53,1.34-3.32,1.34-5.37v-29.74h16.33v30.2c0,4.6-1.12,8.71-3.37,12.34-2.25,3.63-5.39,6.47-9.43,8.51-4.04,2.04-8.74,3.07-14.11,3.07Z"/>
          <path class="cls-1" d="M471.88,89.38c-4.4,0-8.38-.42-11.96-1.26-3.58-.84-6.76-1.95-9.54-3.33-2.79-1.38-5.28-2.94-7.47-4.68l7.82-12.04c3.83,2.96,7.7,5,11.61,6.09,3.91,1.1,7.42,1.65,10.54,1.65,1.02,0,2.08-.08,3.18-.23,1.1-.15,2.03-.45,2.8-.88.77-.43,1.15-1.14,1.15-2.11,0-.61-.2-1.12-.61-1.53-.41-.41-.98-.77-1.73-1.07-.74-.31-1.61-.55-2.61-.73-1-.18-2.12-.35-3.37-.5-1.25-.15-2.59-.31-4.02-.46-3.42-.46-6.48-1.15-9.16-2.07-2.68-.92-4.96-2.08-6.82-3.49-1.87-1.41-3.28-3.05-4.25-4.94-.97-1.89-1.46-4.06-1.46-6.52,0-2.81.66-5.33,1.99-7.55,1.33-2.22,3.18-4.1,5.56-5.63,2.38-1.53,5.08-2.69,8.13-3.49,3.04-.79,6.27-1.19,9.7-1.19,4.04,0,7.54.35,10.5,1.03,2.96.69,5.53,1.62,7.7,2.8,2.17,1.18,4,2.43,5.48,3.76l-8.05,10.35c-1.43-.87-3.04-1.62-4.83-2.26-1.79-.64-3.62-1.12-5.48-1.46-1.87-.33-3.64-.5-5.33-.5s-3.05.09-4.25.27c-1.2.18-2.16.49-2.87.92-.72.43-1.07,1.06-1.07,1.88,0,.72.41,1.3,1.23,1.76.82.46,1.83.82,3.03,1.07,1.2.26,2.41.45,3.64.57,1.23.13,2.25.24,3.07.35,2.96.36,5.83.86,8.59,1.49,2.76.64,5.22,1.56,7.4,2.76,2.17,1.2,3.87,2.84,5.1,4.91,1.23,2.07,1.84,4.74,1.84,8.01,0,3.94-1.12,7.26-3.37,9.97-2.25,2.71-5.26,4.77-9.05,6.17-3.78,1.41-8.02,2.11-12.73,2.11Z"/>
          <path class="cls-1" d="M349.13,34.95l-30.48,19.5v34.17h62.71v-34.17l-32.23-19.5ZM327.43,79.83v-20.57l21.82-13.96,23.31,14.1v20.42h-7.97c-3.66-2.11-8.18-3.44-13.11-3.64l-1.09-7.5c1.61-.24,5.53-1.04,8.37-3.53,3.66-3.2,4.14-7.97,4.14-7.97,0,0-5.45.42-9.11,3.62-2.12,1.86-3.17,4.24-3.68,5.92-.04.13-.07.25-.11.36-.03-.12-.07-.24-.11-.36-.51-1.68-1.56-4.06-3.68-5.92-3.66-3.2-9.11-3.62-9.11-3.62,0,0,.48,4.77,4.14,7.97,2.84,2.49,6.76,3.29,8.37,3.53l-1.1,7.51c-4.84.24-9.27,1.56-12.87,3.63h-8.21Z"/>
        </g>
      </g>
      <g>
        <path class="cls-1" d="M13.81,24.37V4.18H5.1V0h22.18v4.18h-8.95v20.19h-4.53Z"/>
        <polygon class="cls-1" points="54.58 0 54.58 10.2 39.95 10.2 39.95 0 35.43 0 35.43 24.37 39.95 24.37 39.95 14.45 54.58 14.45 54.58 24.37 59.1 24.37 59.1 0 54.58 0"/>
        <polygon class="cls-1" points="74.35 20.26 74.35 13.93 87.58 13.93 87.58 9.89 74.35 9.89 74.35 4.11 89.36 4.11 89.36 0 69.9 0 69.9 24.37 89.5 24.37 89.5 20.26 74.35 20.26"/>
      </g>
    </g>
  </g>
</svg>