<?xml version="1.0" encoding="UTF-8"?>
<svg id="Layer_2" data-name="Layer 2" xmlns="http://www.w3.org/2000/svg" viewBox="0 0 83.52 77.99">
  <defs>
    <style>
      .cls-1 {
        fill: none;
        stroke: #1e2207;
        stroke-miterlimit: 10;
        stroke-width: 5px;
      }
    </style>
  </defs>
  <g id="Site_Icons" data-name="Site Icons">
    <path class="cls-1" d="M27.93,2.51c-.43-.02-.87,0-1.3.08-4.59.74-7.34,6.49-6.37,13.37.56,4,2.34,7.51,4.75,9.38,1.28.99,2.68,1.5,4.09,1.5.32,0,.64-.03.96-.08,4.59-.74,7.34-6.49,6.37-13.37-.56-4-2.33-7.51-4.74-9.38-1.18-.91-2.46-1.42-3.76-1.5ZM55.58,2.52c-1.3.08-2.58.57-3.75,1.48-2.41,1.87-4.18,5.37-4.74,9.38-.96,6.88,1.77,12.64,6.36,13.38.32.05.65.08.97.08,1.42,0,2.82-.51,4.1-1.5,2.41-1.87,4.18-5.37,4.74-9.38.96-6.88-1.78-12.64-6.37-13.38-.44-.07-.88-.09-1.31-.06ZM9.32,24.78c-.53.02-1.06.11-1.58.27-1.83.56-3.34,1.91-4.26,3.8-1.19,2.45-1.3,5.59-.31,8.6,1.51,4.59,5.13,7.6,8.76,7.6.63,0,1.26-.09,1.88-.28,1.83-.56,3.34-1.91,4.26-3.8,1.19-2.45,1.3-5.59.31-8.6-1.55-4.71-5.33-7.76-9.06-7.6ZM74.18,24.78c-3.74-.16-7.5,2.88-9.06,7.6-.99,3.01-.88,6.15.31,8.6.92,1.89,2.44,3.24,4.26,3.8.62.19,1.25.28,1.88.28,3.63,0,7.25-3.02,8.76-7.61.99-3.01.88-6.14-.31-8.59-.92-1.89-2.44-3.24-4.26-3.8-.53-.16-1.06-.25-1.59-.27ZM41.76,30.89c-4.82,0-9.27,4.37-12.16,11.47-2.16,5.31-6.45,9.42-11.58,12.17-4.6,2.46-5.24,5.23-5.24,7.41,0,8.78,14.62,13.55,28.98,13.55s28.98-4.78,28.98-13.55c0-2.19-.64-4.96-5.24-7.42-5.13-2.74-9.41-6.85-11.58-12.16-2.89-7.1-7.34-11.47-12.16-11.47Z"/>
  </g>
</svg>