<?xml version="1.0" encoding="UTF-8"?>
<svg id="Layer_2" data-name="Layer 2" xmlns="http://www.w3.org/2000/svg" viewBox="0 0 79.65 96.82">
  <defs>
    <style>
      .cls-1 {
        fill: #1e2207;
      }
    </style>
  </defs>
  <g id="Site_Icons" data-name="Site Icons">
    <g>
      <path class="cls-1" d="M78.35,62.83c.86-4.7,1.3-9.58,1.3-14.49s-.44-9.79-1.3-14.49c-1.29-7.05-1.95-13.86-1.95-20.31l1.02-11.22c.08-.82-.42-1.59-1.2-1.87-.95-.34-3.04-.44-3.7-.44-2.25,0-3.48.63-4.46,1.13-.83.43-1.43.73-2.81.73s-1.98-.31-2.8-.73c-.98-.5-2.2-1.13-4.46-1.13s-3.48.63-4.46,1.13c-.83.43-1.43.73-2.81.73s-1.98-.31-2.8-.73c-.98-.51-2.21-1.13-4.46-1.13s-3.48.63-4.46,1.13c-.83.43-1.43.73-2.81.73s-1.98-.31-2.81-.73c-.98-.51-2.21-1.13-4.46-1.13s-3.48.63-4.46,1.13c-.83.43-1.43.73-2.81.73s-1.98-.31-2.81-.73c-.98-.51-2.21-1.13-4.46-1.13s-3.48.63-4.46,1.13c-.83.43-1.43.73-2.81.73-1.02,0-2.43-.08-2.73-.14-.56-.12-1.15.04-1.58.43-.43.39-.65.96-.59,1.53l1.02,9.88c0,6.39-.66,13.21-1.95,20.26-.86,4.71-1.3,9.59-1.3,14.52s.44,9.81,1.3,14.52c1.3,7.07,1.95,13.9,1.95,20.31v.09l-1.02,9.89c-.06.57.16,1.14.59,1.52.43.39,1.01.55,1.58.43.31-.06,1.71-.14,2.73-.14,1.38,0,1.98.31,2.81.73.98.5,2.21,1.13,4.46,1.13s3.48-.63,4.46-1.13c.83-.43,1.43-.73,2.81-.73s1.98.31,2.81.73c.98.51,2.21,1.13,4.46,1.13s3.48-.63,4.46-1.13c.83-.43,1.43-.73,2.81-.73s1.98.31,2.81.73c.98.51,2.21,1.13,4.46,1.13s3.48-.63,4.46-1.13c.83-.43,1.43-.73,2.8-.73s1.98.31,2.81.73c.98.51,2.21,1.13,4.46,1.13s3.48-.63,4.46-1.13c.83-.43,1.43-.73,2.8-.73s1.98.31,2.81.73c.98.51,2.21,1.13,4.46,1.13.66,0,2.75-.1,3.7-.44.78-.28,1.27-1.05,1.2-1.87l-1.02-11.22v-.18c0-6.39.66-13.22,1.95-20.27ZM7.14,5.49c2.26,0,3.48-.63,4.46-1.13.83-.43,1.43-.73,2.81-.73s1.98.31,2.81.73c.98.51,2.21,1.13,4.46,1.13s3.48-.63,4.46-1.13c.83-.43,1.43-.73,2.81-.73s1.98.31,2.81.73c.98.51,2.21,1.13,4.46,1.13s3.48-.63,4.46-1.13c.83-.43,1.43-.73,2.8-.73s1.98.31,2.81.73c.98.51,2.21,1.13,4.46,1.13s3.48-.63,4.46-1.13c.83-.43,1.43-.73,2.8-.73s1.98.31,2.8.73c.98.5,2.21,1.13,4.46,1.13s3.48-.63,4.46-1.13c.83-.43,1.43-.73,2.81-.73.33,0,.74.02,1.14.05l-.73,8.03H6.7l-.64-6.24c.49.02.9.02,1.08.02ZM72.53,93.2c-1.38,0-1.98-.31-2.81-.73-.98-.51-2.21-1.13-4.46-1.13s-3.48.63-4.46,1.13c-.83.43-1.43.73-2.8.73s-1.98-.31-2.8-.73c-.98-.51-2.21-1.13-4.46-1.13s-3.48.63-4.46,1.13c-.83.43-1.43.73-2.81.73s-1.98-.31-2.8-.73c-.98-.51-2.21-1.13-4.46-1.13s-3.48.63-4.46,1.13c-.83.43-1.43.73-2.81.73s-1.98-.31-2.81-.73c-.98-.51-2.21-1.13-4.46-1.13s-3.48.63-4.46,1.13c-.83.43-1.43.73-2.81.73s-1.98-.31-2.81-.73c-.98-.51-2.21-1.13-4.46-1.13-.18,0-.59,0-1.08.02l.64-6.24h66.23l.73,8.03c-.4.03-.81.05-1.14.05ZM74.79,62.18c-1.23,6.69-1.9,13.18-2,19.32H6.86c-.1-6.14-.77-12.62-2-19.29-.82-4.49-1.24-9.16-1.24-13.87s.42-9.37,1.24-13.87c1.22-6.62,1.89-13.05,2-19.15h65.94c.11,6.1.78,12.54,1.99,19.17.82,4.49,1.24,9.14,1.24,13.84s-.42,9.35-1.24,13.84Z"/>
      <path class="cls-1" d="M39.83,22.56c-14.21,0-25.77,11.56-25.77,25.77s11.56,25.77,25.77,25.77,25.77-11.56,25.77-25.77-11.56-25.77-25.77-25.77ZM54.73,64.69c-3.82-1.89-8.33-3.07-13.2-3.27l-1.23-8.43c1.81-.27,6.22-1.17,9.41-3.97,4.11-3.6,4.65-8.96,4.65-8.96,0,0-6.13.47-10.24,4.07-2.39,2.09-3.57,4.77-4.14,6.66-.04.14-.08.28-.12.41-.04-.13-.08-.27-.12-.41-.57-1.88-1.75-4.57-4.14-6.66-4.11-3.6-10.24-4.07-10.24-4.07,0,0,.54,5.36,4.65,8.96,3.19,2.8,7.6,3.7,9.41,3.97l-1.23,8.44c-4.86.24-9.35,1.46-13.14,3.37-4.52-4.06-7.38-9.92-7.38-16.46,0-12.22,9.94-22.16,22.16-22.16s22.16,9.94,22.16,22.16c0,6.48-2.81,12.29-7.25,16.35Z"/>
    </g>
  </g>
</svg>