<?xml version="1.0" encoding="UTF-8"?>
<svg id="Layer_2" data-name="Layer 2" xmlns="http://www.w3.org/2000/svg" viewBox="0 0 94.91 89.92">
  <defs>
    <style>
      .cls-1 {
        fill: #1e2207;
      }
    </style>
  </defs>
  <g id="Site_Icons" data-name="Site Icons">
    <g>
      <path class="cls-1" d="M89.33,41.21l-2-1.73.99-.99c8.79-8.79,8.79-23.1,0-31.9-8.8-8.8-23.11-8.8-31.91,0l-4.45,4.45-16.83,16.83-11.36-11.36c-.69-.69-1.82-.69-2.51,0l-4.08,4.08c-7.38,7.38-8.43,18.96-2.51,27.55l.92,1.34s.03.04.05.06c.02.03.04.06.07.09l12.23,14.13-15.98,1.36c-.73-1.84-2.51-3.15-4.61-3.15H1.78c-.98,0-1.78.8-1.78,1.78v20.78c0,.98.79,1.78,1.78,1.78h5.56c2.1,0,3.89-1.31,4.61-3.15l35.63,3.03c2.89,2.49,6.43,3.75,9.99,3.75,3.93,0,7.85-1.52,10.86-4.53l21.7-21.7c3.01-3.01,4.64-7.17,4.49-11.42-.15-4.25-2.08-8.28-5.3-11.05ZM63.28,18.67l2.6-2.6c1.72-1.72,4.02-2.67,6.47-2.67h0c2.45,0,4.76.95,6.48,2.68,1.73,1.73,2.68,4.03,2.68,6.48s-.95,4.75-2.68,6.48l-1.67,1.67-13.9-12.03ZM58.92,9.11c7.41-7.41,19.47-7.41,26.88,0,7.41,7.41,7.41,19.47,0,26.88l-1.17,1.17-4.77-4.13,1.49-1.49c2.4-2.4,3.72-5.59,3.72-8.99s-1.32-6.59-3.72-8.99c-2.4-2.4-5.59-3.72-8.99-3.72h0c-3.4,0-6.59,1.32-8.99,3.72l-2.78,2.78-4.77-4.13,3.1-3.1ZM19.69,23.1l2.82-2.82,10.11,10.11-15.31,15.31c-4.62-7.13-3.66-16.55,2.38-22.6ZM7.34,82.74h-3.79v-17.23h3.79c.78,0,1.41.63,1.41,1.41v.07s0,.01,0,.02v3.56s0,10.76,0,10.76c0,.78-.63,1.41-1.41,1.41ZM12.31,70.48v-1.83l18.5-1.57,13.17,15.22-31.67-2.69v-9.13ZM87.62,61.18l-21.7,21.7c-4.53,4.53-11.74,4.66-16.41.28,0,0-.01-.01-.02-.02-.28-.25-.56-.54-.85-.88l-29.17-33.7,16.91-16.91s.02-.03.03-.04l16.88-16.88,1.79,1.55,21,18.17s.01.01.02.02l7.46,6.46s0,0,0,0l3.44,2.97c2.5,2.17,3.95,5.18,4.07,8.5.12,3.32-1.11,6.43-3.45,8.78Z"/>
      <path class="cls-1" d="M66.48,49.85c4.49,4.49,4.01,9.32.73,12.6s-8.11,3.76-12.6-.73-6.02-17.89-6.02-17.89c0,0,13.4,1.53,17.89,6.02Z"/>
    </g>
  </g>
</svg>